HIERARCHY
ROOT Hips
{
  OFFSET 265.287 66.7526 -254.649
  CHANNELS 6 Xposition Yposition Zposition Zrotation Xrotation Yrotation
  JOINT LeftUpLeg
  {
    OFFSET 8.64259 1.95398 -2.38835
    CHANNELS 3 Zrotation Xrotation Yrotation
    JOINT LeftLeg
    {
      OFFSET 43.7702 0 0
      CHANNELS 3 Zrotation Xrotation Yrotation
      JOINT LeftFoot
      {
        OFFSET 40.6238 0 0
        CHANNELS 3 Zrotation Xrotation Yrotation
        JOINT LeftToeBase
        {
          OFFSET 12.7242 0 0
          CHANNELS 3 Zrotation Xrotation Yrotation
          End Site
          {
            OFFSET 0 0 0
          }
        }
      }
    }
  }
  JOINT RightUpLeg
  {
    OFFSET -8.2249 1.95398 -2.59336
    CHANNELS 3 Zrotation Xrotation Yrotation
    JOINT RightLeg
    {
      OFFSET 43.5653 0 0
      CHANNELS 3 Zrotation Xrotation Yrotation
      JOINT RightFoot
      {
        OFFSET 40.6238 0 0
        CHANNELS 3 Zrotation Xrotation Yrotation
        JOINT RightToeBase
        {
          OFFSET 12.7242 0 0
          CHANNELS 3 Zrotation Xrotation Yrotation
          End Site
          {
            OFFSET 0 0 0
          }
        }
      }
    }
  }
  JOINT Spine
  {
    OFFSET 0.165834 0.87714 6.61349
    CHANNELS 3 Zrotation Xrotation Yrotation
    JOINT Spine1
    {
      OFFSET 7.38963 1.71661e-005 0
      CHANNELS 3 Zrotation Xrotation Yrotation
      JOINT Spine2
      {
        OFFSET 11.9445 1.14441e-005 0
        CHANNELS 3 Zrotation Xrotation Yrotation
        JOINT Spine3
        {
          OFFSET 14.7254 4.19617e-005 0
          CHANNELS 3 Zrotation Xrotation Yrotation
          JOINT Spine4
          {
            OFFSET 10.9679 0 0
            CHANNELS 3 Zrotation Xrotation Yrotation
            JOINT RightShoulder
            {
              OFFSET 2.46616 -1.6653 3.69651
              CHANNELS 3 Zrotation Xrotation Yrotation
              JOINT RightArm
              {
                OFFSET 13.0012 0 0
                CHANNELS 3 Zrotation Xrotation Yrotation
                JOINT RightForeArm
                {
                  OFFSET 28.7848 1.52588e-005 0
                  CHANNELS 3 Zrotation Xrotation Yrotation
                  JOINT RightHand
                  {
                    OFFSET 26.5688 1.52588e-005 0
                    CHANNELS 3 Zrotation Xrotation Yrotation
                    End Site
                    {
                      OFFSET 0 0 0
                    }
                  }
                }
              }
            }
            JOINT LeftShoulder
            {
              OFFSET 2.38034 -1.29275 -3.7523
              CHANNELS 3 Zrotation Xrotation Yrotation
              JOINT LeftArm
              {
                OFFSET 16.3182 6.10351e-005 0
                CHANNELS 3 Zrotation Xrotation Yrotation
                JOINT LeftForeArm
                {
                  OFFSET 27.0901 0 0
                  CHANNELS 3 Zrotation Xrotation Yrotation
                  JOINT LeftHand
                  {
                    OFFSET 24.5451 1.52588e-005 0
                    CHANNELS 3 Zrotation Xrotation Yrotation
                    End Site
                    {
                      OFFSET 0 0 0
                    }
                  }
                }
              }
            }
            JOINT Neck
            {
              OFFSET 5.0226 -0.0266342 0
              CHANNELS 3 Zrotation Xrotation Yrotation
              JOINT Head
              {
                OFFSET 6.69364 2.86102e-005 0
                CHANNELS 3 Zrotation Xrotation Yrotation
                End Site
                {
                  OFFSET 0 0 0
                }
              }
            }
          }
        }
      }
    }
  }
}
MOTION
Frames:	13
Frame Time:	0.0416667
164.06 95.8092 -175.001 -97.5084 -43.9429 -94.0315 -177.452 17.684 87.8568 -8.70548 12.6091 2.63429 51.834 -1.55606 7.10701 41.456 -3.87636 5.2283 175.254 -8.35943 88.8024 -30.695 -12.9435 -2.80303 62.6417 2.36139 17.575 50.1339 -2.74252 4.44932 0.968604 7.61701 -90.3672 11.6475 1.75455 -0.91443 -0.0226353 1.71262 -0.990795 -22.5667 1.94821 -0.344691 -2.55409 1.94825 -0.344676 102.195 -44.1982 -82.1119 31.7815 -6.36458 -9.16689 -8.69818 -16.6825 -33.3767 -13.4948 -0.602779 0.00514338 -81.8435 -50.8045 90.8555 -32.2727 3.66498 -0.459893 9.06169 29.6222 -10.3312 -4.71919 -0.160638 -0.94762 8.06802 0.683452 -3.39972 -17.9169 0.485792 7.0957 
156.985 94.7412 -166.845 -99.0447 -44.982 -97.4464 -178.349 20.0691 84.9226 -26.1028 15.7383 2.51198 51.9197 -2.56599 11.0148 42.4424 -4.15724 1.4173 173.565 -6.32008 83.695 -41.225 -12.1587 -2.91515 44.0493 8.08412 23.986 53.8959 -1.97008 15.2818 0.757269 7.59594 -89.864 11.6821 1.5701 0.108495 0.0121409 1.57334 0.0392673 -22.5298 1.46488 0.575455 -2.51721 1.46489 0.57546 102.05 -45.3981 -82.3534 33.2159 -5.37119 -5.04784 -7.19887 -19.1621 -27.7892 -12.7873 -0.733591 1.56251 -82.0045 -50.7409 90.6082 -30.5726 3.99676 -1.19239 8.77948 29.2204 -10.3499 -4.29404 -0.155572 -0.516542 8.21567 0.557018 -3.726 -18.4635 0.519924 6.17757 
150.717 94.8434 -159.766 -101.164 -46.4113 -100.542 -178.579 15.3206 82.4924 -32.7113 16.1045 2.63797 61.135 2.02576 17.1963 36.5134 -2.25006 -3.86953 174.646 5.65371 83.9149 -62.1043 -15.6611 -3.31765 38.7552 10.0852 16.8349 43.3446 -1.93288 10.6082 0.345889 7.82691 -89.5868 11.2149 0.880467 0.733447 -0.455966 0.911883 0.69398 -22.9905 0.619334 0.964144 -2.97786 0.619341 0.964141 102.097 -45.6716 -82.2744 34.7101 -4.14209 -3.88277 -5.92283 -22.9397 -21.1729 -8.73271 -0.551283 2.20414 -82.6786 -50.3312 89.5599 -29.4427 5.5507 -6.90812 9.1245 29.0763 -11.4071 -3.57171 -0.134734 0.225388 9.96254 1.45416 -3.60661 -18.6577 1.29064 7.22088 
144.39 96.02 -153.006 -102.795 -49.095 -99.7408 -178.276 8.00341 85.0497 -32.5214 18.3217 4.05244 66.2178 4.99016 17.3789 36.7943 -2.33287 -3.86449 174.204 16.5325 87.9879 -64.8571 -14.5933 -1.67847 47.7995 6.60981 15.2025 38.7175 -1.6263 7.26963 -0.128797 7.88863 -89.8477 11.0987 -0.185662 0.322344 -0.572253 -0.171293 0.330197 -23.1074 -0.273964 0.251639 -3.09471 -0.273968 0.251637 102.026 -45.7529 -82.3917 35.7757 -2.58924 -1.0529 -4.95094 -23.5916 -17.5749 -6.08737 -0.368369 2.04611 -82.3384 -49.4589 90.0027 -28.0971 7.69843 -14.1884 10.3449 28.49 -14.3714 -2.08038 -0.0845134 -0.626038 8.44929 2.28554 -2.98062 -19.3783 1.82981 7.58565 
138.238 96.9005 -146.663 -103.079 -51.6761 -98.7784 -176.972 0.189434 87.2259 -28.7356 22.0129 4.47766 68.434 6.88959 17.6758 37.3469 -2.53603 -3.50891 173.333 21.3796 89.7105 -49.0636 -8.52042 0.721993 52.7801 4.70109 15.4177 41.2608 -1.81736 4.90507 -0.434522 7.78557 -90.0426 11.303 -0.88461 0.00316848 -0.367626 -0.883599 0.0420995 -22.9051 -0.844666 -0.262856 -2.8924 -0.844648 -0.262851 102.101 -46.9014 -82.2679 34.8538 -1.76608 3.96119 -4.8583 -23.237 -17.7011 -6.54141 -0.36224 1.37438 -81.9534 -48.3345 90.5044 -26.2609 10.8763 -19.7878 12.0907 23.7605 -21.2087 1.61048 0.0416544 -0.569901 6.86632 2.15765 -4.48995 -18.8681 1.84262 8.73122 
132.139 97.0191 -140.512 -101.869 -55.4835 -99.0275 -176.528 -5.70371 88.2454 -24.7483 23.7337 4.85855 68.9347 7.22108 15.1895 39.6872 -3.35414 -1.09626 174.797 18.8824 87.6918 -18.0872 -0.926922 1.02994 52.9649 5.18133 18.0448 37.3207 -1.16958 -1.73923 -0.756477 7.66186 -90.0125 11.5521 -1.51066 0.130173 -0.118019 -1.50347 0.196543 -22.66 -1.47994 -0.32997 -2.64737 -1.47993 -0.329971 102.624 -47.4261 -81.4254 35.0044 0.467901 6.34539 -5.15506 -23.5022 -16.7316 -5.92283 -0.361155 2.11878 -82.9925 -48.1764 88.8834 -22.5514 12.7286 -25.0059 13.7226 20.1653 -27.6919 2.33613 0.0359404 -1.30469 7.75711 2.05392 -5.52713 -18.7236 2.00358 8.72827 
125.422 96.6084 -133.944 -102.359 -58.6973 -100.893 -176.717 -10.2187 89.1281 -26.3178 27.528 6.54937 66.2927 5.53882 12.0385 46.1015 -5.24405 1.63219 177.309 16.9266 85.7159 -5.51857 3.05873 -1.28365 53.3383 5.5993 19.9683 34.095 -0.486021 -4.41361 -1.01306 7.62341 -89.9815 11.6311 -2.00637 0.245266 -0.0383162 -1.99364 0.333368 -22.5857 -1.98729 -0.369313 -2.57308 -1.98731 -0.369328 103.069 -47.3646 -80.7068 35.4579 2.00359 5.99009 -4.24197 -24.6875 -12.9324 -4.77473 -0.305041 2.48756 -82.5156 -47.5767 89.5664 -22.5255 13.4937 -28.4546 15.1148 19.599 -30.6675 3.84556 0.0566324 -1.65012 9.19166 1.67765 -5.48809 -18.6709 1.71063 8.56302 
117.535 95.6992 -126.243 -101.468 -58.3927 -98.0814 -178.607 -10.4177 91.3175 -35.2331 23.1748 8.12926 56.3713 0.236198 1.58602 57.6044 -8.70874 1.36585 175.807 18.0886 88.0875 -15.3263 -3.15124 1.15424 48.4083 8.04762 12.7724 35.7058 -0.883779 -2.06006 -0.887075 7.43175 -90.4725 12.0059 -1.98656 -0.724277 0.336286 -2.01652 -0.636109 -22.2067 -1.67704 -1.28794 -2.19401 -1.67704 -1.28795 102.749 -46.9219 -81.218 34.2575 2.362 5.32904 -3.21757 -25.631 -10.202 -3.73677 -0.253098 3.27234 -82.5625 -49.528 89.6671 -23.4239 13.8032 -23.9357 15.226 18.9925 -31.6081 3.76693 0.0536878 -1.68243 10.2033 2.44181 -2.43871 -21.166 1.8547 7.10201 
110.223 94.9634 -119.043 -101.806 -56.2802 -95.8891 -179.57 -1.4146 93.9646 -53.8134 16.9086 6.08973 40.7205 -5.33096 2.38865 53.5173 -8.80189 -9.4088 175.118 18.9735 91.3157 -30.5131 -5.72275 2.65891 56.9409 5.71792 9.03352 28.2788 0.077341 -0.0350813 -0.464761 7.37774 -90.9974 12.1038 -1.39529 -1.83651 0.432444 -1.47475 -1.77334 -22.0946 -0.778997 -2.17081 -2.08201 -0.778978 -2.1708 103.069 -46.2909 -80.6871 32.7612 1.41111 4.09258 -3.58722 -24.6987 -12.3094 -5.77539 -0.466199 4.62985 -82.8802 -49.6393 89.1924 -27.5002 14.3491 -17.4469 14.7534 21.6672 -28.9385 2.86269 0.0584912 -1.11133 10.4046 2.59308 -2.30294 -22.1505 1.73803 8.15573 
103.68 95.1958 -112.531 -103.86 -56.1117 -96.6024 177.478 10.948 92.0774 -67.0823 9.00725 4.70522 49.378 -1.08652 6.24888 47.205 -6.00239 -5.37969 175.224 13.27 93.0561 -34.4774 -3.97574 2.6347 64.0585 3.44145 9.93478 29.9095 -0.20199 0.370589 -0.203319 7.63724 -91.3335 11.5814 -1.02876 -2.54984 -0.0915526 -1.13992 -2.50214 -22.6069 -0.2152 -2.741 -2.59424 -0.21518 -2.74099 102.904 -46.3873 -80.9585 30.2515 -0.802546 -0.132285 -3.69855 -20.6915 -16.5614 -10.9488 -0.89808 4.57254 -83.2563 -50.2603 88.681 -29.7322 14.6234 -14.4896 12.6833 27.0177 -22.9707 1.10056 -0.000564402 -1.42044 10.4826 1.59703 -2.67543 -20.3576 0.875984 8.79692 
96.9644 96.3269 -106.132 -101.452 -52.7777 -97.2152 179.077 18.2481 87.9334 -56.1163 10.3381 3.06171 57.4395 2.22883 8.4386 48.8082 -6.55158 -5.06729 176.324 6.78434 91.9533 -31.9251 -3.4247 0.21396 68.6746 2.33356 12.2168 29.1393 -0.102334 0.498375 0.191731 7.54619 -91.0288 11.7761 -0.102095 -2.04105 0.103602 -0.19179 -2.03459 -22.4192 0.515928 -1.97743 -2.40656 0.515941 -1.97743 103.142 -46.3261 -80.5678 28.8784 -2.28557 -4.84527 -4.00915 -16.3369 -20.4505 -12.1524 -0.762585 2.14928 -83.0916 -50.0095 88.9066 -32.0006 12.5063 -9.67821 10.1156 32.4033 -16.1043 -3.56674 -0.133027 -0.834673 8.02259 0.808918 -3.11054 -20.5786 0.402803 6.97649 
90.9694 96.6762 -99.7616 -98.0691 -48.7776 -95.0007 -178.551 17.5227 86.6141 -23.5886 9.16202 1.18526 53.996 1.01654 8.23182 44.6144 -4.89347 0.512275 176.406 0.0512168 91.6449 -27.3628 -1.10493 -0.763876 71.7382 1.82991 18.3263 27.6157 0.0749755 0.734965 0.636512 7.38472 -90.9124 12.108 0.834037 -1.9126 0.435882 0.749082 -1.94745 -22.0931 1.37022 -1.57364 -2.08046 1.37023 -1.57364 102.488 -45.4338 -81.6302 28.6427 -4.14411 -7.27491 -5.27271 -14.1558 -26.7421 -12.9231 -0.61637 0.385352 -83.0102 -51.5447 89.1696 -31.2745 9.0935 -3.90635 8.81293 33.171 -12.7916 -4.74363 -0.174665 -0.271898 7.26277 0.430762 -3.02634 -20.3191 0.153868 5.97312 
84.9332 95.8217 -93.3181 -96.2561 -44.3354 -91.9468 -177.5 19.4494 87.3702 -7.34288 11.4112 2.44846 56.0019 -0.473696 6.95665 35.4087 -2.09151 0.762941 176.437 -3.97325 91.9051 -27.2194 -4.60803 -1.17921 71.6914 0.410132 18.5902 34.5084 -0.93801 1.70747 1.02608 7.44423 -91.0524 11.9969 1.54368 -2.26707 0.324807 1.44245 -2.33279 -22.2078 2.15356 -1.69848 -2.19513 2.15356 -1.69849 101.34 -44.6716 -83.5403 27.6286 -5.30258 -10.5677 -6.67595 -14.7021 -30.2672 -12.2096 -0.531883 -0.123251 -82.5051 -52.8332 90.0261 -30.9974 6.48599 -0.314457 8.63102 31.8736 -11.5434 -4.17206 -0.152492 -0.426179 9.0749 0.840277 -2.864 -20.2303 0.576613 5.94909 
